<svg id="Layer_5" enable-background="new 0 0 64 64" height="512" viewBox="0 0 64 64" width="512" xmlns="http://www.w3.org/2000/svg"><g><g><g><path d="m33.55 50.55 1.45 11.45h-6l.93-12.08c.05-.32.07-.63.07-.92h2z" fill="#ff826e"/></g><g><path d="m20.96 51.35c1.25 1.47 3.35 2.59 4.04 4.65 3.42-1.71 4.65-4.16 4.93-6.08l-.93 12.08h-8v-10h-.04z" fill="#b4dd7f"/></g><g><path d="m20 49c0 .94.39 1.68.96 2.35v.65h-.96l-4.96.62c-1.92.24-3.84-.42-5.21-1.79-1.17-1.17-1.83-2.76-1.83-4.42v-10.41h6v9.36c0 .41.16.8.45 1.09s.68.45 1.08.45c.08 0 .16-.01.24-.02l5.15-.79c-.24.29-.92 1.26-.92 2.91z" fill="#b4dd7f"/></g><g><path d="m46.99 46.69 1.24.19c.48.08.97-.08 1.32-.43.29-.29.45-.68.45-1.09v-9.36h6v10.41c0 1.66-.66 3.25-1.83 4.42-1.18 1.18-2.78 1.84-4.43 1.84-.26 0-.52-.02-.78-.05l-4.96-.62h-1v10h-8l-1.45-11.45 2.45 2.45 1.72-7.74z" fill="#b4dd7f"/></g><g><path d="m37.72 45.26-1.72 7.74-2.45-2.45-1.55-1.55 4-4z" fill="#a0d468"/></g><g><path d="m20.94 46.08c-1.59-1.31-2.94-3.03-2.94-5.08 0-4 3-5 3-5v-7.5c0-2.9 1.18-5.52 3.08-7.42s4.52-3.08 7.42-3.08c5.8 0 10.5 4.7 10.5 10.5v.5s2 2 2 5-1 4-1 7c0 2.16 3.72 2.94 3.99 5.69l-9.27-1.43-1.72-.26v-3l-.09-.19c1.87-1.26 3.09-3.39 3.09-5.81v-7h-4.39c-2.36 0-4.65-.7-6.61-2l-3 2v7c0 1.94.78 3.68 2.05 4.95.56.56 1.22 1.03 1.95 1.37v.01c-.01.87-.1 2.02-.84 2.83 1 1 1.84 1.84 1.84 3.84l-.07.92c-.28 1.92-1.51 4.37-4.93 6.08-.69-2.06-2.79-3.18-4.04-4.65-.57-.67-.96-1.41-.96-2.35 0-1.65.68-2.62.92-2.91h.03z" fill="#656d78"/></g><g><path d="m16 33.2c0 .51-.2 1-.57 1.37l-1.43 1.43h-6v-6c0-1.1.9-2 2-2h2c1.1 0 2 .9 2 2v1l.93.46c.66.33 1.07 1 1.07 1.74z" fill="#f0d0b4"/></g><g><path d="m56 30v6h-6l-1.43-1.43c-.37-.37-.57-.86-.57-1.37 0-.74.41-1.41 1.07-1.74l.93-.46v-1c0-1.1.9-2 2-2h2c1.1 0 2 .9 2 2z" fill="#f0d0b4"/></g><g><path d="m36 42v3l-4 4h-2c0-2-.84-2.84-1.84-3.84.74-.81.83-1.96.84-2.83v-.01c.91.44 1.92.68 3 .68 1.46 0 2.8-.44 3.91-1.19z" fill="#f0d0b4"/></g><g><path d="m39 29v7c0 2.42-1.22 4.55-3.09 5.81-1.11.75-2.45 1.19-3.91 1.19-1.08 0-2.09-.24-3-.68-.73-.34-1.39-.81-1.95-1.37-1.27-1.27-2.05-3.01-2.05-4.95v-7l3-2c1.96 1.3 4.25 2 6.61 2z" fill="#f0d0b4"/></g><g><circle cx="32" cy="8" fill="#ff826e" r="6"/></g><g><path d="m13 20v1c0 1.66-1.34 3-3 3-.83 0-1.58-.34-2.12-.88s-.88-1.29-.88-2.12v-1h3z" fill="#aab2bd"/></g><g><path d="m13 19.21v.79h-3-3v-.75c0-1-.46-1.97-1.3-2.51-2.5-1.59-4.05-4.53-3.63-7.79.45-3.59 3.4-6.49 7-6.9 4.83-.54 8.93 3.22 8.93 7.95 0 2.83-1.47 5.31-3.68 6.73-.84.54-1.32 1.48-1.32 2.48z" fill="#ffeaa7"/></g><g><circle cx="10" cy="10" fill="#fcd770" r="2"/></g><g><path d="m62 10v4l-2.53.84c-.06.15-.11.29-.18.43l1.2 2.39-2.83 2.83-2.39-1.2c-.14.07-.28.12-.43.18l-.84 2.53h-4l-.84-2.53c-.15-.06-.29-.11-.43-.18l-2.39 1.2-2.83-2.83 1.2-2.39c-.07-.14-.12-.28-.18-.43l-2.53-.84v-4l2.53-.84c.06-.15.11-.29.18-.43l-1.2-2.39 2.83-2.83 2.39 1.2c.14-.07.28-.12.43-.18l.84-2.53h4l.84 2.53c.15.06.29.11.43.18l2.39-1.2 2.83 2.83-1.2 2.39c.07.14.12.28.18.43zm-6 2c0-2.21-1.79-4-4-4s-4 1.79-4 4 1.79 4 4 4 4-1.79 4-4z" fill="#fcd770"/></g></g><g><path d="m54 27h-2c-1.654 0-3 1.346-3 3v.382l-.376.188c-1.002.501-1.624 1.508-1.624 2.627 0 .785.306 1.522.86 2.077l1.14 1.14v8.95c0 .141-.058.279-.157.379-.121.12-.292.176-.46.151l-.566-.087c-.417-1.375-1.495-2.29-2.394-3.044-.885-.742-1.423-1.232-1.423-1.763 0-1.377.229-2.291.47-3.257.26-1.042.53-2.12.53-3.743 0-2.673-1.38-4.633-2-5.379v-.121c0-6.341-5.159-11.5-11.5-11.5s-11.5 5.159-11.5 11.5v6.871c-1.067.605-3 2.178-3 5.629 0 1.697.76 3.166 1.823 4.4l-3.204.493c-.173.026-.341-.031-.461-.151-.1-.1-.157-.238-.157-.379v-8.95l1.14-1.14c.553-.553.859-1.291.859-2.076 0-1.12-.622-2.126-1.624-2.627l-.376-.188v-.382c0-1.654-1.346-3-3-3h-2c-1.654 0-3 1.346-3 3v16.406c0 1.939.755 3.763 2.127 5.136 1.596 1.595 3.796 2.353 6.036 2.07l4.837-.604v9.992h24v-9.992l4.837.604c2.238.284 4.439-.475 6.036-2.071 1.372-1.372 2.127-3.196 2.127-5.135v-16.406c0-1.654-1.346-3-3-3zm-4.481 5.359 1.481-.741v-1.618c0-.551.448-1 1-1h2c.552 0 1 .449 1 1v5h-4.586l-1.14-1.14c-.176-.177-.274-.412-.274-.663 0-.357.198-.678.519-.838zm-28.203 4.59.684-.228v-8.221c0-5.238 4.262-9.5 9.5-9.5s9.5 4.262 9.5 9.5v.914l.293.293c.017.017 1.707 1.737 1.707 4.293 0 1.377-.229 2.291-.47 3.257-.26 1.042-.53 2.12-.53 3.743 0 1.503 1.136 2.455 2.138 3.295.446.374.878.737 1.215 1.132l-8.353-1.285v-1.907c1.826-1.468 3-3.715 3-6.235v-8h-5.395c-2.161 0-4.253-.633-6.051-1.832l-.554-.37-4 2.667v7.535c0 2.943 1.602 5.512 3.974 6.902-.049.591-.185 1.175-.556 1.581l-.644.707.676.676c.962.961 1.542 1.545 1.549 3.111l-.064.831c-.195 1.269-.937 3.224-3.482 4.797-.629-1.06-1.543-1.865-2.373-2.595-.418-.368-.777-.695-1.08-1.008v-.002h-.002c-.631-.652-.998-1.243-.998-2 0-.6.108-1.076.24-1.439 2.103 1.492 4.234 2.309 4.409 2.375l.703-1.873c-2.045-.766-7.352-3.53-7.352-7.063 0-3.187 2.23-4.021 2.316-4.051zm10.684 5.051c-3.309 0-6-2.691-6-6v-6.465l2.016-1.344c1.994 1.185 4.257 1.809 6.589 1.809h3.395v6c0 3.309-2.691 6-6 6zm0 2c1.061 0 2.073-.212 3-.589v1.175l-3.414 3.414h-.664c-.201-1.355-.798-2.219-1.479-2.955.225-.432.357-.888.438-1.339.677.186 1.385.294 2.119.294zm-1.072 6h.658l1.011 1.011 1.268 9.989h-3.785l.844-10.968c.001-.011.002-.021.004-.032zm2.486-1 2.935-2.935.162.025-1.092 4.914zm-23.414-20h2c.552 0 1 .449 1 1v1.618l1.481.741c.321.16.519.481.519.838 0 .25-.098.486-.274.663l-1.14 1.14h-4.586v-5c0-.551.448-1 1-1zm4.915 22.628c-1.63.201-3.217-.344-4.374-1.5-.993-.995-1.541-2.317-1.541-3.722v-9.406h4v8.364c0 .677.264 1.314.743 1.793.568.569 1.383.834 2.179.713l3.288-.506c-.124.468-.21 1.009-.21 1.636 0 .788.211 1.461.541 2.057zm7.085 2.099c.894.792 1.711 1.568 2.052 2.589l.364 1.094 1.031-.516c1.331-.665 2.339-1.426 3.113-2.213l-.486 6.319h-6.074zm31.459-3.6c-1.157 1.157-2.746 1.703-4.374 1.501l-4.961-.62-2.124-.008v10h-6.119l-.975-7.68 1.675 1.675 1.911-8.6 9.587 1.475c.793.121 1.609-.145 2.178-.713.479-.479.743-1.116.743-1.793v-8.364h4v9.406c0 1.405-.548 2.727-1.541 3.721z"/><path d="m32 15c3.859 0 7-3.14 7-7s-3.141-7-7-7-7 3.14-7 7 3.141 7 7 7zm0-12c2.757 0 5 2.243 5 5s-2.243 5-5 5-5-2.243-5-5 2.243-5 5-5z"/><path d="m35.707 6.707-1.414-1.414-3.293 3.293-1.293-1.293-1.414 1.414 2.707 2.707z"/><path d="m10 25c2.206 0 4-1.794 4-4v-1.792c0-.669.33-1.297.862-1.639 2.591-1.666 4.138-4.495 4.138-7.569 0-2.56-1.096-5.007-3.006-6.713-1.908-1.706-4.472-2.518-7.039-2.228-4.052.459-7.365 3.723-7.88 7.763-.447 3.508 1.118 6.865 4.085 8.761.518.332.84.97.84 1.667v1.75c0 2.206 1.794 4 4 4zm0-2c-1.103 0-2-.897-2-2h4c0 1.103-.897 2-2 2zm-1-13c0-.551.448-1 1-1s1 .449 1 1-.448 1-1 1-1-.449-1-1zm-5.94-.925c.399-3.137 2.974-5.673 6.12-6.029.278-.031.554-.046.828-.046 1.726 0 3.354.617 4.654 1.778 1.485 1.327 2.338 3.231 2.338 5.222 0 2.39-1.203 4.591-3.219 5.887-1.058.679-1.704 1.832-1.768 3.113h-1.013v-6.184c1.161-.414 2-1.514 2-2.816 0-1.654-1.346-3-3-3s-3 1.346-3 3c0 1.302.839 2.402 2 2.816v6.184h-1.015c-.074-1.292-.711-2.44-1.749-3.102-2.307-1.475-3.525-4.089-3.176-6.823z"/><path d="m63 9.279-2.455-.819 1.157-2.314-3.848-3.848-2.315 1.158-.818-2.456h-5.441l-.818 2.456-2.315-1.158-3.848 3.848 1.157 2.314-2.456.819v5.441l2.455.819-1.157 2.314 3.848 3.848 2.315-1.158.818 2.457h5.441l.818-2.456 2.315 1.158 3.848-3.848-1.157-2.314 2.456-.819zm-2 4-2.294.765-.169.441c-.05.128-.1.255-.155.379l-.194.433 1.081 2.162-1.809 1.809-2.162-1.081-.433.194c-.123.055-.248.105-.375.153l-.445.168-.766 2.298h-2.559l-.766-2.298-.445-.168c-.127-.048-.252-.098-.375-.153l-.433-.194-2.162 1.081-1.809-1.809 1.081-2.162-.194-.433c-.056-.125-.105-.251-.155-.379l-.169-.441-2.293-.765v-2.559l2.294-.765.169-.441c.05-.128.1-.255.155-.379l.194-.433-1.081-2.162 1.809-1.809 2.162 1.081.433-.194c.123-.055.248-.105.375-.153l.445-.168.766-2.297h2.559l.766 2.298.445.168c.127.048.252.098.375.153l.433.194 2.162-1.081 1.809 1.809-1.081 2.162.194.433c.056.125.105.251.155.379l.169.441 2.293.765z"/><path d="m52 7c-2.757 0-5 2.243-5 5s2.243 5 5 5 5-2.243 5-5-2.243-5-5-5zm0 8c-1.654 0-3-1.346-3-3s1.346-3 3-3 3 1.346 3 3-1.346 3-3 3z"/></g></g></svg>