<?xml version="1.0" encoding="iso-8859-1"?>
<!-- Generator: Adobe Illustrator 19.0.0, SVG Export Plug-In . SVG Version: 6.00 Build 0)  -->
<svg version="1.1" id="Layer_1" xmlns="http://www.w3.org/2000/svg" xmlns:xlink="http://www.w3.org/1999/xlink" x="0px" y="0px"
	 viewBox="0 0 511.99 511.99" style="enable-background:new 0 0 511.99 511.99;" xml:space="preserve">
<path style="fill:#8AD5DD;" d="M437.76,276.002H22.24C10,276.002,0,265.922,0,253.682v-118.72c0-12.24,10-22.24,22.24-22.24h415.52
	c12.24,0,22.24,10,22.24,22.24v118.72C460.08,265.922,450.08,276.002,437.76,276.002z"/>
<g>
	
		<rect x="446.089" y="307.087" transform="matrix(-0.7071 0.7071 -0.7071 -0.7071 1044.5651 273.2596)" style="fill:#002833;" width="39.2" height="91.759"/>
	<polygon style="fill:#002833;" points="390.24,363.522 372.48,261.122 474.88,278.962 	"/>
</g>
<g>
	<path style="fill:#FFFFFF;" d="M78.72,158.082l9.6,36.88c2.08,8.08,4,15.6,5.36,23.12h0.48c1.68-7.36,4-15.12,6.48-22.96
		l11.84-37.04h11.12l11.28,36.32c2.72,8.72,4.8,16.32,6.48,23.68h0.48c1.2-7.36,3.12-15.04,5.52-23.52l10.32-36.4h13.04
		l-23.36,72.56h-12l-11.12-34.64c-2.56-8.08-4.64-15.28-6.48-23.84h-0.32c-1.76,8.72-4,16.16-6.56,24l-11.68,34.48h-12l-21.92-72.56
		h13.44V158.082z"/>
	<path style="fill:#FFFFFF;" d="M190.8,158.082l9.6,36.88c2.08,8.08,4,15.6,5.36,23.12h0.48c1.68-7.36,4-15.12,6.48-22.96
		l11.84-37.04h11.12l11.28,36.32c2.72,8.72,4.8,16.32,6.48,23.68h0.48c1.2-7.36,3.12-15.04,5.52-23.52l10.32-36.4h13.04
		l-23.36,72.56h-12l-11.12-34.64c-2.56-8.08-4.64-15.28-6.48-23.84h-0.32c-1.76,8.72-4,16.16-6.56,24l-11.68,34.48h-12l-21.92-72.56
		h13.44V158.082z"/>
	<path style="fill:#FFFFFF;" d="M302.96,158.082l9.6,36.88c2.08,8.08,4,15.6,5.36,23.12h0.48c1.68-7.36,4-15.12,6.48-22.96
		l11.84-37.04h11.12l11.28,36.32c2.72,8.72,4.8,16.32,6.48,23.68h0.48c1.2-7.36,3.12-15.04,5.52-23.52l10.32-36.4h13.04
		l-23.36,72.56h-12l-11.12-34.64c-2.56-8.08-4.64-15.28-6.48-23.84h-0.4c-1.76,8.72-4,16.16-6.56,24l-11.68,34.48h-12l-21.92-72.56
		h13.52V158.082z"/>
</g>
<g>
</g>
<g>
</g>
<g>
</g>
<g>
</g>
<g>
</g>
<g>
</g>
<g>
</g>
<g>
</g>
<g>
</g>
<g>
</g>
<g>
</g>
<g>
</g>
<g>
</g>
<g>
</g>
<g>
</g>
</svg>
